<svg width="24" height="31" viewBox="0 0 24 31" fill="none" xmlns="http://www.w3.org/2000/svg">
<path fill-rule="evenodd" clip-rule="evenodd" d="M0 12C0 4.5 6.1 0 12 0C17.9 0 24 4.5 24 12C24 19.2 13.2 30.2 12.7 30.7C12.5 30.9 12.3 31 12 31C11.7 31 11.5 30.9 11.3 30.7C10.8 30.2 0 19.1 0 12ZM13 13H16C16.6 13 17 12.6 17 12C17 11.4 16.6 11 16 11H13V8C13 7.4 12.6 7 12 7C11.4 7 11 7.4 11 8V11H8C7.4 11 7 11.4 7 12C7 12.6 7.4 13 8 13H11V16C11 16.6 11.4 17 12 17C12.6 17 13 16.6 13 16V13Z" fill="white"/>
</svg>
